<svg width="27" height="27" viewBox="0 0 27 27" fill="none" xmlns="http://www.w3.org/2000/svg">
<path id="&#208;&#159;&#208;&#190;&#208;&#184;&#209;&#129;&#208;&#186; &#208;&#189;&#208;&#176; &#209;&#129;&#208;&#176;&#208;&#185;&#209;&#130;&#208;&#181;" d="M10.2734 2.63527e-05C15.9473 2.63527e-05 20.5469 4.59962 20.5469 10.2735C20.5469 15.9473 15.9473 20.547 10.2735 20.547C4.59957 20.547 0 15.9473 0 10.2735C0.00675 4.60234 4.60231 0.00674999 10.2728 0H10.2735L10.2734 2.63527e-05ZM10.2734 18.1688C14.634 18.1688 18.1688 14.634 18.1688 10.2735C18.1688 5.91294 14.634 2.37816 10.2734 2.37816C5.91297 2.37816 2.37811 5.91302 2.37811 10.2735C2.38351 14.6318 5.91516 18.1635 10.273 18.1689H10.2735L10.2734 18.1688ZM25.3151 27L15.6754 17.3567L17.3567 15.6754L27 25.3151L25.3151 27Z" fill="black"/>
</svg>
