<svg width="27" height="27" viewBox="0 0 27 27" fill="none" xmlns="http://www.w3.org/2000/svg">
<path id="&#208;&#155;&#208;&#184;&#209;&#135;&#208;&#189;&#209;&#139;&#208;&#185; &#208;&#186;&#208;&#176;&#208;&#177;&#208;&#184;&#208;&#189;&#208;&#181;&#209;&#130;" d="M13.5 0C17.8693 0 21.4114 3.47917 21.4114 7.77095C21.4114 12.0627 17.8693 15.5419 13.5 15.5419C9.1306 15.5419 5.58854 12.0627 5.58854 7.77095C5.59386 3.48128 9.13276 0.00524876 13.4995 0H13.5ZM13.5 13.2326C16.5709 13.2326 19.0603 10.7873 19.0603 7.77098C19.0603 4.75464 16.5709 2.30937 13.5 2.30937C10.4291 2.30937 7.93964 4.75462 7.93964 7.77095C7.94299 10.786 10.4304 13.2293 13.4997 13.2325H13.4999L13.5 13.2326ZM24.6865 26.74L24.2516 24.3706C23.2872 19.3295 18.8412 15.5662 13.5001 15.565H13.4994C8.16306 15.565 3.71973 19.3205 2.75915 24.2875L2.74839 24.3544L2.31465 26.7169L0 26.3035L0.434935 23.9364C1.61468 17.8193 7.01389 13.2557 13.4982 13.2557H13.5001H13.5C19.9906 13.2573 25.3931 17.8311 26.551 23.8762L26.5639 23.9572L27 26.33L24.6865 26.74Z" fill="black"/>
</svg>
