<svg width="28" height="28" viewBox="0 0 28 28" fill="none" xmlns="http://www.w3.org/2000/svg">
<path id="&#208;&#154;&#208;&#190;&#209;&#128;&#208;&#183;&#208;&#184;&#208;&#189;&#208;&#176;" d="M11.4622 20.3686C13.3519 20.4024 14.8781 21.9592 14.8712 23.8458C14.8643 25.7325 13.3268 27.2345 11.4372 27.2007C9.54757 27.1669 8.02133 25.6101 8.02825 23.7234C8.03517 21.8368 9.5726 20.3348 11.4622 20.3686ZM11.4458 24.8529C12.0367 24.8635 12.5175 24.3938 12.5197 23.8038C12.5218 23.2138 12.0445 22.727 11.4536 22.7164C10.8627 22.7058 10.3819 23.1755 10.3798 23.7655C10.3776 24.3555 10.8549 24.8423 11.4458 24.8529ZM21.562 20.5492C23.4517 20.583 24.978 22.1399 24.9711 24.0265C24.9641 25.9132 23.4266 27.4152 21.537 27.3814C19.6474 27.3476 18.1211 25.7907 18.1281 23.9041C18.135 22.0175 19.6724 20.5154 21.5621 20.5492L21.562 20.5492ZM21.5456 25.0336C22.1365 25.0442 22.6173 24.5744 22.6195 23.9845C22.6217 23.3945 22.1444 22.9076 21.5534 22.8971C20.9625 22.8865 20.4817 23.3562 20.4796 23.9462C20.4774 24.5362 20.9547 25.023 21.5456 25.0336ZM21.5299 22.8966L9.77138 22.6863C7.57329 22.647 5.79793 20.836 5.80598 18.6414C5.81273 16.8007 7.07199 15.2747 8.77496 14.8536L8.80271 14.8479L5.52088 3.9674C5.23445 3.0699 4.41176 2.42133 3.43844 2.40391L0.299005 2.34775L0.307617 0L3.45291 0.0562678C5.47134 0.0923766 7.17675 1.44011 7.75688 3.27099L7.76569 3.30319L7.76564 3.31492L11.9316 17.1251L9.79285 17.0868C8.89349 17.0707 8.16173 17.7856 8.15843 18.6836C8.15514 19.5815 8.88154 20.3225 9.78092 20.3386L21.5386 20.5489L21.5299 22.8966ZM24.7063 17.3535L10.3454 17.0966L10.354 14.7489L22.9418 14.9741L24.9233 8.17692L24.9267 7.27306L8.14844 6.9729L8.15705 4.62507L27.2868 4.9673L27.2737 8.54768L24.7063 17.3535Z" fill="black"/>
</svg>
